<?xml version="1.0" encoding="utf-8"?>
<!-- Generator: Adobe Illustrator 27.2.0, SVG Export Plug-In . SVG Version: 6.00 Build 0)  -->
<svg version="1.1" id="Layer_1" xmlns="http://www.w3.org/2000/svg" xmlns:xlink="http://www.w3.org/1999/xlink" x="0px" y="0px"
	 viewBox="0 0 50 100" style="enable-background:new 0 0 50 100;" xml:space="preserve">
<style type="text/css">
	.st0{fill:#262E3B;}
	.st1{fill:#FFFFFF;}
	.st2{fill:#FF9900;}
	.st3{fill:#787776;}
</style>
<rect x="0" y="50" width="50" height="50"/>
<rect x="0" class="st0" width="50" height="50"/>
<g>
	<g transform="matrix(0.13 0 0 0.13 540.17 505.56)">
		<path vector-effect="non-scaling-stroke" class="st1" d="M-4022.9-3712.6c0,3.1,0.3,5.7,0.9,7.5c0.7,1.9,1.5,3.9,2.7,6.1
			c0.4,0.7,0.6,1.4,0.6,1.9c0,0.8-0.5,1.7-1.6,2.5l-5.3,3.6c-0.8,0.5-1.5,0.8-2.2,0.8c-0.8,0-1.7-0.4-2.5-1.2
			c-1.2-1.3-2.2-2.6-3.1-4c-0.8-1.4-1.7-3.1-2.6-5c-6.6,7.8-14.9,11.7-24.9,11.7c-7.1,0-12.8-2-17-6.1s-6.3-9.5-6.3-16.3
			c0-7.2,2.5-13.1,7.7-17.5c5.2-4.4,12-6.6,20.8-6.6c2.9,0,5.8,0.3,9,0.7c3.1,0.4,6.4,1.1,9.7,1.9v-6.2c0-6.4-1.4-10.9-4-13.6
			c-2.7-2.6-7.3-3.9-13.8-3.9c-3,0-6,0.3-9.2,1.1c-3.1,0.8-6.2,1.7-9.2,2.9c-1.4,0.6-2.4,0.9-3,1.1c-0.6,0.2-1,0.3-1.4,0.3
			c-1.2,0-1.8-0.8-1.8-2.6v-4.2c0-1.4,0.2-2.4,0.6-3c0.4-0.6,1.2-1.2,2.4-1.8c3-1.5,6.5-2.8,10.7-3.8c4.2-1.1,8.6-1.6,13.2-1.6
			c10.1,0,17.5,2.3,22.2,6.9c4.7,4.6,7,11.5,7,20.9v27.5H-4022.9z M-4057.3-3699.7c2.8,0,5.7-0.5,8.7-1.5c3.1-1,5.8-2.9,8.1-5.4
			c1.4-1.6,2.4-3.4,2.9-5.4s0.8-4.5,0.8-7.4v-3.6c-2.5-0.6-5.1-1.1-7.8-1.4c-2.7-0.3-5.3-0.5-8-0.5c-5.7,0-9.8,1.1-12.6,3.4
			c-2.8,2.3-4.2,5.5-4.2,9.7c0,4,1,7,3.1,9C-4064.2-3700.7-4061.2-3699.7-4057.3-3699.7z M-3989.2-3690.6c-1.5,0-2.5-0.3-3.2-0.8
			c-0.7-0.5-1.3-1.7-1.8-3.3l-19.9-65.5c-0.5-1.7-0.8-2.8-0.8-3.4c0-1.4,0.7-2.1,2-2.1h8.3c1.6,0,2.7,0.3,3.3,0.8
			c0.7,0.5,1.2,1.7,1.7,3.3l14.2,56.1l13.2-56.1c0.4-1.7,0.9-2.8,1.6-3.3c0.7-0.5,1.9-0.8,3.4-0.8h6.8c1.6,0,2.7,0.3,3.4,0.8
			c0.7,0.5,1.3,1.7,1.6,3.3l13.4,56.8l14.7-56.8c0.5-1.7,1.1-2.8,1.7-3.3c0.7-0.5,1.8-0.8,3.3-0.8h7.9c1.4,0,2.1,0.7,2.1,2.1
			c0,0.4-0.1,0.8-0.2,1.4c-0.1,0.5-0.3,1.2-0.6,2.1l-20.4,65.5c-0.5,1.7-1.1,2.8-1.8,3.3c-0.7,0.5-1.8,0.8-3.2,0.8h-7.3
			c-1.6,0-2.7-0.3-3.4-0.8c-0.7-0.6-1.3-1.7-1.6-3.4l-13.1-54.7l-13.1,54.6c-0.4,1.7-0.9,2.8-1.6,3.4c-0.7,0.6-1.9,0.8-3.4,0.8
			H-3989.2z M-3880.3-3688.3c-4.4,0-8.8-0.5-13.1-1.5c-4.2-1-7.5-2.1-9.7-3.4c-1.4-0.8-2.3-1.6-2.6-2.4c-0.3-0.8-0.5-1.6-0.5-2.4
			v-4.3c0-1.8,0.7-2.6,1.9-2.6c0.5,0,1,0.1,1.5,0.3c0.5,0.2,1.3,0.5,2.1,0.8c2.9,1.3,6,2.3,9.3,3c3.4,0.7,6.7,1,10.1,1
			c5.3,0,9.5-0.9,12.4-2.8c2.9-1.9,4.4-4.6,4.4-8.1c0-2.4-0.8-4.3-2.3-5.9c-1.5-1.6-4.4-3.1-8.6-4.4l-12.3-3.8
			c-6.2-1.9-10.8-4.8-13.6-8.6c-2.8-3.7-4.2-7.9-4.2-12.3c0-3.6,0.8-6.7,2.3-9.4s3.6-5.1,6.1-7c2.5-1.9,5.4-3.4,8.8-4.4
			c3.4-1,7-1.4,10.7-1.4c1.9,0,3.8,0.1,5.7,0.3c1.9,0.3,3.7,0.6,5.5,0.9c1.7,0.4,3.3,0.8,4.8,1.4c1.5,0.5,2.7,1,3.6,1.5
			c1.2,0.7,2,1.4,2.5,2.1c0.5,0.7,0.8,1.6,0.8,2.8v4c0,1.8-0.7,2.7-1.9,2.7c-0.7,0-1.8-0.3-3.2-1c-4.8-2.2-10.3-3.3-16.3-3.3
			c-4.8,0-8.6,0.8-11.3,2.4c-2.6,1.6-4,4.1-4,7.5c0,2.4,0.8,4.4,2.5,6c1.7,1.6,4.8,3.2,9.3,4.7l12,3.8c6.1,1.9,10.5,4.7,13.1,8.1
			c2.6,3.5,3.9,7.5,3.9,11.9c0,3.6-0.8,7-2.2,9.8c-1.5,2.9-3.6,5.4-6.2,7.5c-2.6,2.1-5.8,3.6-9.4,4.7
			C-3872-3688.9-3876-3688.3-3880.3-3688.3z"/>
	</g>
	<g transform="matrix(0.13 0 0 0.13 540.18 516.33)">
		<path vector-effect="non-scaling-stroke" class="st2" d="M-3864.3-3730.9c-27.9,20.6-68.4,31.5-103.2,31.5
			c-48.8,0-92.8-18.1-126.1-48.1c-2.6-2.4-0.3-5.6,2.9-3.7c35.9,20.9,80.3,33.5,126.1,33.5c30.9,0,64.9-6.4,96.2-19.7
			C-3863.7-3739.5-3859.7-3734.3-3864.3-3730.9z M-3852.7-3744.2c-3.6-4.6-23.6-2.2-32.6-1.1c-2.7,0.3-3.1-2-0.7-3.8
			c15.9-11.2,42.1-8,45.2-4.2c3.1,3.8-0.8,30-15.8,42.6c-2.3,1.9-4.5,0.9-3.5-1.6C-3856.7-3720.8-3849.1-3739.7-3852.7-3744.2z"/>
	</g>
</g>
<g transform="matrix(0.13 0 0 0.13 539.99 553.68)">
	<path vector-effect="non-scaling-stroke" class="st3" d="M-4021.5-3699.8c0,3.1,0.3,5.7,0.9,7.5c0.7,1.9,1.5,3.9,2.7,6.1
		c0.4,0.7,0.6,1.4,0.6,1.9c0,0.8-0.5,1.7-1.6,2.5l-5.3,3.6c-0.8,0.5-1.5,0.8-2.2,0.8c-0.8,0-1.7-0.4-2.5-1.2c-1.2-1.3-2.2-2.6-3.1-4
		c-0.8-1.4-1.7-3.1-2.6-5c-6.6,7.8-14.9,11.7-24.9,11.7c-7.1,0-12.8-2-17-6.1s-6.3-9.5-6.3-16.3c0-7.2,2.5-13.1,7.7-17.5
		c5.2-4.4,12-6.6,20.8-6.6c2.9,0,5.8,0.3,9,0.7c3.1,0.4,6.4,1.1,9.7,1.9v-6.2c0-6.4-1.4-10.9-4-13.6c-2.7-2.6-7.3-3.9-13.8-3.9
		c-3,0-6,0.3-9.2,1.1s-6.2,1.7-9.2,2.9c-1.4,0.6-2.4,0.9-3,1.1c-0.6,0.2-1,0.3-1.4,0.3c-1.2,0-1.8-0.8-1.8-2.6v-4.2
		c0-1.4,0.2-2.4,0.6-3c0.4-0.6,1.2-1.2,2.4-1.8c3-1.5,6.5-2.8,10.7-3.8c4.2-1.1,8.6-1.6,13.2-1.6c10.1,0,17.5,2.3,22.2,6.9
		c4.7,4.6,7,11.5,7,20.9v27.5H-4021.5z M-4055.9-3686.9c2.8,0,5.7-0.5,8.7-1.5c3.1-1,5.8-2.9,8.1-5.4c1.4-1.6,2.4-3.4,2.9-5.4
		c0.5-2,0.8-4.5,0.8-7.4v-3.6c-2.5-0.6-5.1-1.1-7.8-1.4s-5.3-0.5-8-0.5c-5.7,0-9.8,1.1-12.6,3.4s-4.2,5.5-4.2,9.7c0,4,1,7,3.1,9
		C-4062.8-3687.9-4059.8-3686.9-4055.9-3686.9z M-3987.9-3677.7c-1.5,0-2.5-0.3-3.2-0.8c-0.7-0.5-1.3-1.7-1.8-3.3l-19.9-65.5
		c-0.5-1.7-0.8-2.8-0.8-3.4c0-1.4,0.7-2.1,2-2.1h8.3c1.6,0,2.7,0.3,3.3,0.8c0.7,0.5,1.2,1.7,1.7,3.3l14.2,56.1l13.2-56.1
		c0.4-1.7,0.9-2.8,1.6-3.3c0.7-0.5,1.9-0.8,3.4-0.8h6.8c1.6,0,2.7,0.3,3.4,0.8c0.7,0.5,1.3,1.7,1.6,3.3l13.4,56.8l14.7-56.8
		c0.5-1.7,1.1-2.8,1.7-3.3c0.7-0.5,1.8-0.8,3.3-0.8h7.9c1.4,0,2.1,0.7,2.1,2.1c0,0.4-0.1,0.8-0.2,1.4s-0.3,1.2-0.6,2.1l-20.4,65.5
		c-0.5,1.7-1.1,2.8-1.8,3.3c-0.7,0.5-1.8,0.8-3.2,0.8h-7.3c-1.6,0-2.7-0.3-3.4-0.8c-0.7-0.6-1.3-1.7-1.6-3.4l-13.1-54.7l-13.1,54.6
		c-0.4,1.7-0.9,2.8-1.6,3.4c-0.7,0.6-1.9,0.8-3.4,0.8H-3987.9z M-3878.9-3675.4c-4.4,0-8.8-0.5-13.1-1.5c-4.2-1-7.5-2.1-9.7-3.4
		c-1.4-0.8-2.3-1.6-2.6-2.4c-0.3-0.8-0.5-1.6-0.5-2.4v-4.3c0-1.8,0.7-2.6,1.9-2.6c0.5,0,1,0.1,1.5,0.3s1.3,0.5,2.1,0.8
		c2.9,1.3,6,2.3,9.3,3c3.4,0.7,6.7,1,10.1,1c5.3,0,9.5-0.9,12.4-2.8c2.9-1.9,4.4-4.6,4.4-8.1c0-2.4-0.8-4.3-2.3-5.9
		c-1.5-1.6-4.4-3.1-8.6-4.4l-12.3-3.8c-6.2-1.9-10.8-4.8-13.6-8.6c-2.8-3.7-4.2-7.9-4.2-12.3c0-3.6,0.8-6.7,2.3-9.4
		c1.5-2.7,3.6-5.1,6.1-7c2.5-1.9,5.4-3.4,8.8-4.4c3.4-1,7-1.4,10.7-1.4c1.9,0,3.8,0.1,5.7,0.3c1.9,0.3,3.7,0.6,5.5,0.9
		c1.7,0.4,3.3,0.8,4.8,1.4c1.5,0.5,2.7,1,3.6,1.5c1.2,0.7,2,1.4,2.5,2.1c0.5,0.7,0.8,1.6,0.8,2.8v4c0,1.8-0.7,2.7-1.9,2.7
		c-0.7,0-1.8-0.3-3.2-1c-4.8-2.2-10.3-3.3-16.3-3.3c-4.8,0-8.6,0.8-11.3,2.4c-2.6,1.6-4,4.1-4,7.5c0,2.4,0.8,4.4,2.5,6
		s4.8,3.2,9.3,4.7l12,3.8c6.1,1.9,10.5,4.7,13.1,8.1c2.6,3.5,3.9,7.5,3.9,11.9c0,3.6-0.8,7-2.2,9.8c-1.5,2.9-3.6,5.4-6.2,7.5
		c-2.6,2.1-5.8,3.6-9.4,4.7C-3870.6-3676-3874.6-3675.4-3878.9-3675.4z"/>
</g>
<g transform="matrix(0.13 0 0 0.13 540 564.45)">
	<path vector-effect="non-scaling-stroke" class="st3" d="M-3862.9-3718.1c-27.9,20.6-68.4,31.5-103.2,31.5
		c-48.8,0-92.8-18.1-126.1-48.1c-2.6-2.4-0.3-5.6,2.9-3.7c35.9,20.9,80.3,33.5,126.1,33.5c30.9,0,64.9-6.4,96.2-19.7
		C-3862.3-3726.7-3858.3-3721.5-3862.9-3718.1z M-3851.3-3731.3c-3.6-4.6-23.6-2.2-32.6-1.1c-2.7,0.3-3.1-2-0.7-3.8
		c15.9-11.2,42.1-8,45.2-4.2c3.1,3.8-0.8,30-15.8,42.6c-2.3,1.9-4.5,0.9-3.5-1.6C-3855.3-3707.9-3847.7-3726.8-3851.3-3731.3z"/>
</g>
</svg>
