<?xml version="1.0" encoding="utf-8"?>
<!-- Generator: Adobe Illustrator 26.1.0, SVG Export Plug-In . SVG Version: 6.00 Build 0)  -->
<svg version="1.1" id="Layer_1" xmlns="http://www.w3.org/2000/svg" xmlns:xlink="http://www.w3.org/1999/xlink" x="0px" y="0px"
	 viewBox="0 0 50 100" style="enable-background:new 0 0 50 100;" xml:space="preserve">
<style type="text/css">
	.st0{fill:none;}
	.st1{fill-rule:evenodd;clip-rule:evenodd;fill:#4375BA;}
	.st2{fill-rule:evenodd;clip-rule:evenodd;}
</style>
<g id="Github_1_">
	<rect x="0.06" y="0" class="st0" width="50" height="50"/>
	<path id="Github" class="st1" d="M25.06,0c-13.8,0-25,11.48-25,25.63c0,11.32,7.16,20.93,17.1,24.32c1.25,0.24,1.71-0.56,1.71-1.24
		c0-0.61-0.02-2.22-0.03-4.36c-6.95,1.55-8.42-3.44-8.42-3.44c-1.14-2.96-2.78-3.75-2.78-3.75c-2.27-1.59,0.17-1.56,0.17-1.56
		c2.51,0.18,3.83,2.64,3.83,2.64c2.23,3.92,5.85,2.79,7.28,2.13c0.23-1.66,0.87-2.79,1.59-3.43c-5.55-0.65-11.39-2.85-11.39-12.67
		c0-2.8,0.97-5.09,2.57-6.88c-0.26-0.65-1.12-3.25,0.24-6.78c0,0,2.1-0.69,6.88,2.63c2-0.57,4.13-0.85,6.26-0.86
		c2.12,0.01,4.26,0.29,6.26,0.86c4.77-3.32,6.87-2.63,6.87-2.63c1.36,3.53,0.51,6.13,0.25,6.78c1.6,1.79,2.57,4.08,2.57,6.88
		c0,9.85-5.85,12.01-11.41,12.65c0.9,0.79,1.7,2.35,1.7,4.75c0,3.43-0.03,6.19-0.03,7.03c0,0.69,0.45,1.48,1.72,1.23
		c9.93-3.4,17.08-13,17.08-24.32C50.06,11.48,38.87,0,25.06,0"/>
</g>
<g id="Github_00000181088415675753670720000018009234477374434217_">
	<rect x="0.06" y="50" class="st0" width="50" height="50"/>
	<path id="Github_00000078043395933395687770000004015128383989827241_" class="st2" d="M25.06,50c-13.8,0-25,11.48-25,25.63
		c0,11.32,7.16,20.93,17.1,24.32c1.25,0.24,1.71-0.56,1.71-1.24c0-0.61-0.02-2.22-0.03-4.36c-6.95,1.55-8.42-3.44-8.42-3.44
		c-1.14-2.96-2.78-3.75-2.78-3.75c-2.27-1.59,0.17-1.56,0.17-1.56c2.51,0.18,3.83,2.64,3.83,2.64c2.23,3.92,5.85,2.79,7.28,2.13
		c0.23-1.66,0.87-2.79,1.59-3.43c-5.55-0.65-11.39-2.85-11.39-12.67c0-2.8,0.97-5.09,2.57-6.88c-0.26-0.65-1.12-3.25,0.24-6.78
		c0,0,2.1-0.69,6.88,2.63c2-0.57,4.13-0.85,6.26-0.86c2.12,0.01,4.26,0.29,6.26,0.86c4.77-3.32,6.87-2.63,6.87-2.63
		c1.36,3.53,0.51,6.13,0.25,6.78c1.6,1.79,2.57,4.08,2.57,6.88c0,9.85-5.85,12.01-11.41,12.65c0.9,0.79,1.7,2.35,1.7,4.75
		c0,3.43-0.03,6.19-0.03,7.03c0,0.69,0.45,1.48,1.72,1.23c9.93-3.4,17.08-13,17.08-24.32C50.06,61.48,38.87,50,25.06,50"/>
</g>
</svg>
