<?xml version="1.0" encoding="utf-8"?>
<!-- Generator: Adobe Illustrator 26.1.0, SVG Export Plug-In . SVG Version: 6.00 Build 0)  -->
<svg version="1.1" id="Layer_1" xmlns="http://www.w3.org/2000/svg" xmlns:xlink="http://www.w3.org/1999/xlink" x="0px" y="0px"
	 viewBox="0 0 50 100" style="enable-background:new 0 0 50 100;" xml:space="preserve">
<style type="text/css">
	.st0{fill:#FAA327;}
	.st1{fill:#F36E2C;}
	.st2{fill:#E2452A;}
	.st3{fill:#010101;}
</style>
<g id="_x31_44-gitlab">
	<g>
		<g id="XMLID_6_">
			<g>
				<g>
					<path class="st0" d="M2.91,19.09L24.99,50L0.79,30.65c-0.66-0.54-0.95-1.47-0.69-2.31L2.91,19.09L2.91,19.09z"/>
				</g>
				<g>
					<polygon class="st1" points="15.79,19.08 25,50 24.99,50 2.91,19.09 2.91,19.08 					"/>
				</g>
				<g>
					<polygon class="st2" points="34.21,19.08 25,50 25,50 15.79,19.08 15.8,19.08 34.2,19.08 					"/>
				</g>
				<g>
					<polygon class="st1" points="47.1,19.09 25,50 34.21,19.08 47.09,19.08 					"/>
				</g>
				<g>
					<path class="st0" d="M49.91,28.34c0.24,0.84-0.03,1.78-0.7,2.31L25,50L47.1,19.09l0,0L49.91,28.34z"/>
				</g>
				<g>
					<path class="st2" d="M41.57,0.7l5.52,18.38H34.21H34.2L39.73,0.7C40.04-0.23,41.27-0.23,41.57,0.7z"/>
				</g>
				<g>
					<path class="st2" d="M15.8,19.08L15.8,19.08H2.91L8.43,0.7c0.31-0.94,1.54-0.94,1.85,0C10.28,0.7,15.79,19.08,15.8,19.08z"/>
				</g>
			</g>
		</g>
	</g>
</g>
<path class="st3" d="M49.86,78.01l-2.62-8.71c-0.01-0.08-0.04-0.16-0.06-0.23l-5.26-17.52c-0.28-0.92-1.09-1.55-2-1.54
	c-0.91,0-1.71,0.63-1.97,1.56l-5.01,16.69H17.09l-5.02-16.69C11.81,50.63,11.01,50,10.11,50H10.1c-0.91,0-1.71,0.63-1.99,1.56
	L2.84,69.09c0,0.02-0.01,0.03-0.02,0.04l-2.67,8.87c-0.4,1.33,0.03,2.79,1.09,3.62l23.07,18.13c0.42,0.33,0.98,0.32,1.39-0.01
	l23.07-18.12C49.83,80.8,50.26,79.34,49.86,78.01 M15.38,70.81l6.43,21.4L6.38,70.81 M28.21,92.21l6.17-20.52l0.27-0.89h9.01
	L29.69,90.15 M39.94,53.2l4.52,15.05h-9.04 M32.16,70.8l-4.48,14.91l-2.67,8.88L17.87,70.8 M10.09,53.2l4.53,15.05H5.58 M2.63,79.57
	c-0.22-0.18-0.32-0.49-0.23-0.77l1.98-6.58l14.54,20.16 M47.39,79.57L31.09,92.36l0.05-0.08l14.48-20.08l1.98,6.58
	C47.7,79.08,47.61,79.39,47.39,79.57"/>
</svg>
