<?xml version="1.0" encoding="utf-8"?>
<!-- Generator: Adobe Illustrator 26.1.0, SVG Export Plug-In . SVG Version: 6.00 Build 0)  -->
<svg version="1.1" id="Layer_1" xmlns="http://www.w3.org/2000/svg" xmlns:xlink="http://www.w3.org/1999/xlink" x="0px" y="0px"
	 viewBox="0 0 50 100" style="enable-background:new 0 0 50 100;" xml:space="preserve">
<style type="text/css">
	.st0{fill:#FFFFFF;}
	.st1{fill:#017BB6;}
</style>
<g>
	<path d="M50,96.88c0,1.72-1.4,3.12-3.12,3.12H3.12C1.4,100,0,98.6,0,96.88V53.12C0,51.4,1.4,50,3.12,50h43.75
		C48.6,50,50,51.4,50,53.12V96.88z"/>
	<g>
		<rect x="10.94" y="67.19" class="st0" width="6.25" height="21.88"/>
		<path class="st0" d="M32.03,67.19c-4.36,0-5.11,1.59-5.47,3.12v-3.12h-6.25v21.88h6.25v-12.5c0-2.03,1.1-3.12,3.12-3.12
			c1.98,0,3.12,1.07,3.12,3.12v12.5h6.25V78.12C39.06,71.88,38.25,67.19,32.03,67.19z"/>
		<circle class="st0" cx="14.06" cy="62.5" r="3.12"/>
	</g>
</g>
<path class="st1" d="M50,46.84c0,1.72-1.4,3.12-3.12,3.12H3.12C1.4,49.96,0,48.56,0,46.84V3.09c0-1.73,1.4-3.12,3.12-3.12h43.75
	c1.72,0,3.12,1.4,3.12,3.12V46.84z"/>
<g>
	<rect x="10.94" y="17.15" class="st0" width="6.25" height="21.88"/>
	<path class="st0" d="M32.03,17.15c-4.36,0-5.11,1.59-5.47,3.12v-3.12h-6.25v21.88h6.25v-12.5c0-2.03,1.1-3.12,3.12-3.12
		c1.98,0,3.12,1.08,3.12,3.12v12.5h6.25V28.09C39.06,21.84,38.25,17.15,32.03,17.15z"/>
	<circle class="st0" cx="14.06" cy="12.46" r="3.12"/>
</g>
</svg>
