<?xml version="1.0" encoding="utf-8"?>
<!-- Generator: Adobe Illustrator 26.1.0, SVG Export Plug-In . SVG Version: 6.00 Build 0)  -->
<svg version="1.1" id="Layer_1" xmlns="http://www.w3.org/2000/svg" xmlns:xlink="http://www.w3.org/1999/xlink" x="0px" y="0px"
	 viewBox="0 0 50 100" style="enable-background:new 0 0 50 100;" xml:space="preserve">
<style type="text/css">
	.st0{fill:#010101;}
	.st1{fill:#414042;}
</style>
<path class="st0" d="M48,0H2C0.89,0,0,0.89,0,2v46c0,1.11,0.89,2,2,2h46c1.11,0,2-0.89,2-2V2C50,0.89,49.11,0,48,0z M41,12.86
	l-2.55,2.44c-0.22,0.17-0.33,0.44-0.29,0.71v17.98c-0.04,0.28,0.06,0.55,0.29,0.71l2.5,2.44v0.54H28.4v-0.52l2.58-2.51
	c0.26-0.26,0.26-0.33,0.26-0.71V19.41l-7.19,18.22h-0.97l-8.36-18.22v12.22c-0.08,0.51,0.11,1.03,0.47,1.4l3.36,4.07v0.54H9v-0.54
	l3.36-4.07c0.36-0.37,0.52-0.89,0.44-1.4V17.5c0.04-0.39-0.11-0.77-0.41-1.04l-2.99-3.6v-0.54h9.28l7.16,15.72l6.31-15.71H41V12.86z
	"/>
<path class="st1" d="M48,50H2c-1.11,0-2,0.89-2,2v46c0,1.11,0.89,2,2,2h46c1.11,0,2-0.89,2-2V52C50,50.89,49.11,50,48,50z M41,62.86
	l-2.55,2.44c-0.22,0.17-0.33,0.44-0.29,0.71v17.98c-0.04,0.28,0.06,0.55,0.29,0.71l2.5,2.44v0.54H28.4v-0.52l2.58-2.51
	c0.26-0.26,0.26-0.33,0.26-0.71V69.41l-7.19,18.22h-0.97l-8.36-18.22v12.22c-0.08,0.51,0.11,1.03,0.47,1.4l3.36,4.07v0.54H9v-0.54
	l3.36-4.07c0.36-0.37,0.52-0.89,0.44-1.4V67.5c0.04-0.39-0.11-0.78-0.41-1.04l-2.99-3.6v-0.54h9.28l7.16,15.72l6.31-15.71H41V62.86z
	"/>
</svg>
