<?xml version="1.0" encoding="utf-8"?>
<!-- Generator: Adobe Illustrator 27.2.0, SVG Export Plug-In . SVG Version: 6.00 Build 0)  -->
<svg version="1.1" id="Layer_1" xmlns="http://www.w3.org/2000/svg" xmlns:xlink="http://www.w3.org/1999/xlink" x="0px" y="0px"
	 viewBox="0 0 50 100" style="enable-background:new 0 0 50 100;" xml:space="preserve">
<style type="text/css">
	.st0{fill:#010101;}
	.st1{fill:#414042;}
</style>
<path class="st0" d="M-8166,25.1H8217 M17.5,15.4c5.3,0,9.7,4.4,9.7,9.7s-4.3,9.7-9.7,9.7s-9.7-4.4-9.7-9.7S12.2,15.4,17.5,15.4z
	 M33,16c2.7,0,4.8,4.1,4.8,9.2h0c0,5.1-2.2,9.2-4.8,9.2s-4.8-4.1-4.8-9.2S30.3,16,33,16z M40.5,16.9c0.9,0,1.7,3.7,1.7,8.2
	c0,4.5-0.8,8.2-1.7,8.2c-0.9,0-1.7-3.7-1.7-8.2S39.5,16.9,40.5,16.9z M7-8141V8242 M48,0.1H2c-1.1,0-2,0.9-2,2v46c0,1.1,0.9,2,2,2
	h46c1.1,0,2-0.9,2-2v-46C50,1,49.1,0.1,48,0.1z"/>
<path class="st1" d="M48,50H2c-1.1,0-2,0.9-2,2v46c0,1.1,0.9,2,2,2h46c1.1,0,2-0.9,2-2V52C50,50.9,49.1,50,48,50z M25-8141V8242
	 M-8166,75H8217 M17.5,65.3c5.3,0,9.7,4.4,9.7,9.7c0,5.4-4.3,9.7-9.7,9.7S7.8,80.4,7.8,75C7.8,69.6,12.2,65.3,17.5,65.3z M33,65.8
	c2.7,0,4.8,4.1,4.8,9.2h0c0,5.1-2.2,9.2-4.8,9.2s-4.8-4.1-4.8-9.2C28.1,69.9,30.3,65.8,33,65.8z M40.5,66.8c0.9,0,1.7,3.7,1.7,8.2
	c0,4.5-0.8,8.2-1.7,8.2c-0.9,0-1.7-3.7-1.7-8.2C38.8,70.5,39.5,66.8,40.5,66.8z"/>
</svg>
