<?xml version="1.0" encoding="utf-8"?>
<!-- Generator: Adobe Illustrator 26.1.0, SVG Export Plug-In . SVG Version: 6.00 Build 0)  -->
<svg version="1.1" id="Layer_1" xmlns="http://www.w3.org/2000/svg" xmlns:xlink="http://www.w3.org/1999/xlink" x="0px" y="0px"
	 viewBox="0 0 50 100" style="enable-background:new 0 0 50 100;" xml:space="preserve">
<style type="text/css">
	.st0{fill:#BE2827;}
	.st1{fill:#010101;}
</style>
<path class="st0" d="M28.22,9.01H10.46v-4.1h-7.3v5.5H0.63c-0.26,0-0.5,0.15-0.61,0.38s-0.09,0.51,0.07,0.72l5.87,7.54v11.62
	l-3.91,1.98v11.18h3.91V50h31.82V18.51C37.78,18.51,28.22,9.01,28.22,9.01z M36.08,48.3H7.66v-4.47h17.68l5.89-5.59l-5.89-5.59H7.66
	V10.71h19.76v8.63h8.66V48.3z M9.59,41v-5.5h2.11c0.61,0,1.08,0.16,1.43,0.47s0.52,0.73,0.52,1.24c0,0.52-0.17,0.93-0.52,1.24
	c-0.34,0.31-0.82,0.47-1.43,0.47h-1.19V41H9.59L9.59,41z M14.75,41v-5.5h1.82c0.7,0,1.26,0.22,1.7,0.65c0.44,0.44,0.66,1,0.66,1.68
	v0.83c0,0.69-0.22,1.25-0.66,1.68s-1,0.65-1.7,0.65h-1.82L14.75,41z M23.3,37.91v0.74h-2.22V41h-0.92v-5.5h3.52v0.74h-2.6v1.68
	L23.3,37.91L23.3,37.91z M3.16,3.04h7.3v0.94h-7.3V3.04z M10.46,0.68C10.46,0.3,10.16,0,9.78,0H3.84C3.46,0,3.16,0.3,3.16,0.68v1.43
	h7.3V0.68z"/>
<path class="st0" d="M10.87,15.36h13.26v2.13H10.87V15.36z M10.87,20.79h13.26v2.13H10.87V20.79z M10.87,26.22h23.17v2.13H10.87
	V26.22z M16.57,36.23h-0.9v4.03h0.9c0.44,0,0.79-0.15,1.05-0.45c0.26-0.3,0.39-0.68,0.39-1.15v-0.84c0-0.46-0.13-0.84-0.39-1.14
	C17.36,36.38,17.01,36.23,16.57,36.23z M12.47,37.9c0.17-0.18,0.26-0.41,0.26-0.69s-0.09-0.51-0.26-0.7
	c-0.17-0.19-0.43-0.28-0.77-0.28h-1.19v1.94h1.19C12.04,38.18,12.3,38.08,12.47,37.9z"/>
<g>
	<path class="st1" d="M28.22,59.01H10.46v-4.1h-7.3v5.5H0.63c-0.26,0-0.5,0.15-0.61,0.38s-0.09,0.51,0.07,0.72l5.87,7.54v11.62
		l-3.91,1.98l0,0l0,0v11.18h3.91V100h31.82V68.51L28.22,59.01z M36.08,98.3H7.66v-4.47h17.68l5.89-5.59l-5.89-5.59H7.66V60.71h19.76
		v8.63h8.66V98.3z M9.59,91v-5.5h2.11c0.61,0,1.08,0.16,1.43,0.47c0.35,0.31,0.52,0.73,0.52,1.24c0,0.52-0.17,0.93-0.52,1.24
		c-0.34,0.31-0.82,0.47-1.43,0.47h-1.19V91H9.59z M14.75,91v-5.5h1.82c0.7,0,1.26,0.22,1.7,0.65c0.44,0.44,0.66,1,0.66,1.68v0.83
		c0,0.69-0.22,1.25-0.66,1.68c-0.44,0.43-1,0.65-1.7,0.65h-1.82V91z M23.3,87.91v0.74h-2.22V91h-0.92v-5.5h3.52v0.74h-2.6v1.68
		L23.3,87.91L23.3,87.91z"/>
	<rect x="3.16" y="53.04" class="st1" width="7.3" height="0.94"/>
	<path class="st1" d="M10.46,50.68c0-0.38-0.3-0.68-0.68-0.68H3.84c-0.38,0-0.68,0.3-0.68,0.68v1.43h7.3V50.68z"/>
	<rect x="10.87" y="65.36" class="st1" width="13.26" height="2.13"/>
	<rect x="10.87" y="70.79" class="st1" width="13.26" height="2.13"/>
	<rect x="10.87" y="76.22" class="st1" width="23.17" height="2.13"/>
	<path class="st1" d="M16.57,86.23h-0.9v4.03h0.9c0.44,0,0.79-0.15,1.05-0.45c0.26-0.3,0.39-0.68,0.39-1.15v-0.84
		c0-0.46-0.13-0.84-0.39-1.14C17.36,86.38,17.01,86.23,16.57,86.23z"/>
	<path class="st1" d="M12.47,87.9c0.17-0.18,0.26-0.41,0.26-0.69s-0.09-0.51-0.26-0.7c-0.17-0.19-0.43-0.28-0.77-0.28h-1.19v1.94
		h1.19C12.04,88.18,12.3,88.08,12.47,87.9z"/>
</g>
</svg>
