<?xml version="1.0" standalone="no"?>
<!DOCTYPE svg PUBLIC "-//W3C//DTD SVG 20010904//EN"
 "http://www.w3.org/TR/2001/REC-SVG-20010904/DTD/svg10.dtd">
<svg version="1.0" xmlns="http://www.w3.org/2000/svg"
 width="300.000000pt" height="120.000000pt" viewBox="0 0 300.000000 120.000000"
 preserveAspectRatio="xMidYMid meet">
<metadata>
Created by potrace 1.10, written by Peter Selinger 2001-2011
</metadata>
<g transform="translate(0.000000,120.000000) scale(0.100000,-0.100000)"
fill="#000000" stroke="none">
<path d="M571 949 c-19 -11 -42 -30 -52 -42 -33 -39 -82 -140 -113 -230 -24
-67 -38 -92 -58 -105 -15 -9 -30 -14 -33 -11 -3 3 8 81 23 173 16 92 26 169
22 171 -9 5 -44 -155 -61 -277 l-12 -87 -48 -11 c-27 -7 -47 -15 -45 -18 2 -4
22 -16 43 -27 21 -11 41 -24 45 -30 4 -5 8 -39 9 -75 1 -78 19 -145 39 -145
18 0 27 39 29 117 0 31 5 59 10 62 5 4 22 1 38 -5 82 -31 191 -1 265 73 l38
38 0 -29 c0 -16 6 -34 14 -40 11 -10 19 -5 39 21 13 18 30 49 37 70 12 33 17
37 54 40 40 3 41 2 41 -27 0 -25 4 -30 25 -33 26 -2 57 19 171 117 35 29 65
49 67 42 4 -13 -33 -131 -56 -176 -8 -16 -32 -50 -53 -74 -58 -66 -112 -150
-130 -205 -19 -54 -16 -76 10 -76 35 0 84 76 147 229 37 91 84 153 137 182 15
9 17 5 17 -30 0 -50 32 -77 72 -62 22 8 90 75 99 98 5 12 119 77 119 68 0 -4
-14 -24 -30 -45 -74 -93 -110 -233 -73 -279 19 -23 20 -23 51 -7 30 15 44 46
22 46 -5 0 -10 -4 -10 -10 0 -5 -10 -14 -21 -21 -76 -40 -31 160 64 284 57 73
49 84 -33 42 -27 -14 -51 -25 -54 -25 -3 0 7 21 21 46 49 87 -18 86 -75 -2
-35 -53 -40 -79 -16 -92 12 -7 7 -16 -30 -50 -25 -23 -53 -42 -61 -42 -20 0
-34 38 -28 76 6 32 39 84 54 84 18 0 9 -32 -11 -37 -21 -6 -26 -18 -11 -27 13
-8 53 40 49 60 -6 31 -40 29 -68 -4 -21 -25 -114 -102 -123 -102 -2 0 7 32 20
71 43 132 25 141 -91 44 -133 -111 -156 -123 -156 -85 0 24 54 86 92 106 36
18 44 13 28 -16 -10 -18 -9 -21 2 -18 19 6 23 57 4 64 -19 7 -52 -11 -103 -57
-24 -22 -51 -39 -62 -39 -11 0 -26 -3 -35 -6 -10 -4 -16 -1 -16 7 0 8 -4 20
-9 28 -13 21 -42 0 -98 -71 -89 -113 -183 -157 -289 -136 -29 6 -54 14 -54 18
0 3 5 33 11 65 10 56 15 63 103 149 144 140 205 255 161 299 -21 22 -33 21
-74 -4z m67 -35 c4 -38 -51 -124 -142 -221 -98 -105 -102 -101 -44 49 34 90
90 171 133 193 39 19 49 15 53 -21z m796 -254 c-29 -54 -50 -77 -61 -66 -9 8
13 47 48 85 40 44 44 38 13 -19z m-650 -108 c-8 -21 -23 -48 -32 -62 l-17 -25
-3 28 c-2 15 6 48 18 73 18 36 25 42 36 33 11 -9 11 -17 -2 -47z m-425 -51
c-8 -40 -15 -51 -27 -49 -12 2 -18 15 -20 40 -3 32 1 39 25 52 15 8 29 13 31
12 1 -2 -3 -26 -9 -55z m-69 -1 c0 -23 -17 -25 -43 -6 -14 11 -15 15 -5 19 29
12 48 7 48 -13z m51 -141 c-1 -40 -5 -78 -9 -84 -9 -15 -19 40 -21 113 -1 56
1 62 16 54 13 -8 16 -23 14 -83z m679 -50 c-51 -102 -75 -139 -91 -139 -12 0
6 53 36 107 33 61 95 146 101 140 3 -3 -18 -51 -46 -108z"/>
<path d="M1909 893 c-59 -128 -73 -201 -73 -383 -1 -146 1 -170 19 -205 13
-27 27 -40 40 -40 24 0 36 31 71 194 13 64 34 148 45 186 22 76 88 225 99 225
4 0 -1 -35 -12 -77 -40 -162 -33 -408 13 -454 44 -44 83 -15 145 107 30 59 40
71 45 57 4 -10 14 -25 23 -32 22 -18 68 1 102 43 l25 31 -6 -60 c-5 -46 -3
-65 9 -80 15 -19 17 -19 30 -2 8 10 31 68 52 128 21 61 42 113 47 116 6 4 8
-3 3 -18 -22 -78 -26 -123 -13 -137 12 -11 19 -6 43 35 l29 48 3 -40 c6 -69
30 -66 114 13 26 24 45 49 42 54 -3 5 -33 -16 -65 -48 -33 -31 -63 -53 -67
-49 -4 4 -7 27 -7 53 0 25 -5 47 -11 49 -7 2 -24 -18 -40 -44 -15 -26 -29 -43
-31 -37 -2 6 8 49 22 97 29 102 29 97 11 97 -18 0 -76 -112 -112 -217 -16 -46
-32 -83 -36 -83 -23 0 9 165 47 247 27 60 30 73 16 73 -5 0 -24 -36 -42 -80
-37 -89 -75 -142 -121 -166 -42 -22 -62 -4 -55 49 6 47 12 54 31 38 11 -9 18
-6 35 15 25 32 24 57 -2 62 -30 6 -57 -28 -104 -128 -89 -191 -127 -227 -161
-152 -27 59 -23 298 7 420 27 108 19 132 -24 80 -57 -67 -96 -182 -165 -478
-30 -128 -34 -135 -57 -85 -14 33 -18 67 -17 190 0 170 21 279 74 386 34 69
34 69 19 69 -5 0 -24 -30 -40 -67z m471 -261 c0 -10 -22 -32 -32 -32 -13 0 -9
28 5 33 19 8 27 8 27 -1z"/>
</g>
</svg>
