<?xml version="1.0" encoding="utf-8"?>
<!-- Generator: Adobe Illustrator 26.1.0, SVG Export Plug-In . SVG Version: 6.00 Build 0)  -->
<svg version="1.1" id="Layer_1" xmlns="http://www.w3.org/2000/svg" xmlns:xlink="http://www.w3.org/1999/xlink" x="0px" y="0px"
	 viewBox="0 0 50 100" style="enable-background:new 0 0 50 100;" xml:space="preserve">
<style type="text/css">
	.st0{fill:#C03B2B;}
	.st1{fill:#E64D3C;}
	.st2{fill:#202020;}
	.st3{fill:#EDF0F1;}
	.st4{fill:#414042;}
</style>
<g transform="translate(0 -1028.4)">
	<g>
		<path class="st0" d="M25,1051.16c-6.84,0-11.91,0.23-15.29,0.45c-1.09,0.23-2.07,0.68-2.88,1.36c-0.81,0.68-1.37,1.59-1.62,2.5
			c-0.48,2.05-0.66,5-0.66,9.09c0,4.32,0.19,7.27,0.66,9.32c0.24,1.14,0.81,1.82,1.62,2.73c0.83,0.68,1.74,1.14,2.81,1.14
			c3.39,0.45,8.52,0.68,15.36,0.68c6.84,0,11.97-0.23,15.36-0.68c1.07,0,2.07-0.45,2.88-1.14c0.81-0.91,1.29-1.59,1.55-2.73
			c0.48-2.05,0.66-5,0.66-9.32c0-4.09-0.18-7.05-0.66-9.09c-0.24-0.91-0.72-1.82-1.55-2.5c-0.81-0.68-1.81-1.14-2.88-1.36
			C36.97,1051.38,31.84,1051.16,25,1051.16z"/>
		<path class="st1" d="M25,1048.88c-6.84,0-11.91,0.23-15.29,0.45c-1.09,0.23-2.07,0.68-2.88,1.36c-0.81,0.68-1.37,1.59-1.62,2.5
			c-0.48,2.05-0.66,5-0.66,9.09c0,4.32,0.19,7.27,0.66,9.32c0.24,1.14,0.81,1.82,1.62,2.73c0.83,0.68,1.74,1.14,2.81,1.14
			c3.39,0.45,8.52,0.68,15.36,0.68c6.84,0,11.97-0.23,15.36-0.68c1.07,0,2.07-0.45,2.88-1.14c0.81-0.91,1.29-1.59,1.55-2.73
			c0.48-2.05,0.66-5,0.66-9.32c0-4.09-0.18-7.05-0.66-9.09c-0.24-0.91-0.72-1.82-1.55-2.5c-0.81-0.68-1.81-1.14-2.88-1.36
			C36.97,1049.11,31.84,1048.88,25,1048.88z"/>
		<path class="st2" d="M12.5,1028.43l3.41,11.36v6.82h2.27v-6.82l3.41-11.36h-2.27l-2.27,7.6l-2.27-7.6H12.5z M26.14,1032.97
			c-1.88,0-3.41,1.53-3.41,3.41v6.82c0,1.88,1.53,3.41,3.41,3.41s3.41-1.53,3.41-3.41v-6.82
			C29.55,1034.5,28.02,1032.97,26.14,1032.97z M31.82,1032.97v0.78v3.76v6.25c0,0.87,0.08,1.51,0.21,1.92
			c0.21,0.63,0.74,0.92,1.49,0.92c0.82,0,1.98-0.51,2.84-1.56v0.57v0.99h2.27v-13.64h-2.27v10.23v0.21
			c-0.49,0.73-1.33,1.14-1.78,1.14c-0.3,0-0.45-0.19-0.5-0.57c-0.02-0.03,0-0.36,0-0.92v-5.54v-3.76v-0.78
			C34.09,1032.97,31.82,1032.97,31.82,1032.97z M26.14,1035.25c0.63,0,1.14,0.51,1.14,1.14v6.82c0,0.63-0.51,1.14-1.14,1.14
			c-0.63,0-1.14-0.51-1.14-1.14v-6.82C25,1035.76,25.51,1035.25,26.14,1035.25z"/>
		<g>
			<rect x="7.95" y="1053.43" class="st3" width="9.09" height="2.27"/>
			<rect x="11.36" y="1055.7" class="st3" width="2.27" height="15.91"/>
			<path class="st3" d="M15.91,1057.97v0.68v3.86v6.14c0,0.91,0.08,1.59,0.21,2.05c0.21,0.45,0.74,0.91,1.49,0.91
				c0.82,0,1.98-0.68,2.84-1.59v0.45v1.14h2.27v-13.64h-2.27v10.23v0.23c-0.49,0.68-1.33,1.14-1.78,1.14c-0.29,0-0.45-0.23-0.5-0.68
				c-0.02,0,0-0.45,0-0.91v-5.45v-3.86v-0.68L15.91,1057.97L15.91,1057.97z"/>
			<path class="st3" d="M25,1053.43v4.55v13.64h2.27v-1v-0.57c0.87,1.06,2.03,1.56,2.84,1.56c0.75,0,1.28-0.29,1.49-0.92
				c0.13-0.41,0.21-1.05,0.21-1.92v-3.98v-3.98c0-0.87-0.08-1.51-0.21-1.92c-0.21-0.63-0.74-0.92-1.49-0.92
				c-0.82,0-1.98,0.51-2.84,1.56v-1.56v-4.55H25z M29.05,1060.03c0.3,0,0.45,0.19,0.5,0.57c0.02,0.03,0,0.36,0,0.92v3.27v3.27
				c0,0.56,0.02,0.89,0,0.92c-0.05,0.38-0.2,0.57-0.5,0.57c-0.44,0-1.28-0.4-1.78-1.14v-0.21v-7.03
				C27.76,1060.44,28.61,1060.03,29.05,1060.03z"/>
			<path class="st3" d="M37.5,1057.97c-1.88,0-3.41,1.53-3.41,3.41v6.82c0,1.88,1.53,3.41,3.41,3.41s3.41-1.53,3.41-3.41v-1.14
				h-2.27v1.14c0,0.63-0.51,1.14-1.14,1.14s-1.14-0.51-1.14-1.14v-1.14v-2.27h2.27h2.27v-3.41
				C40.91,1059.5,39.38,1057.97,37.5,1057.97z M37.5,1060.25c0.63,0,1.14,0.51,1.14,1.14v1.14h-2.27v-1.14
				C36.36,1060.76,36.87,1060.25,37.5,1060.25z"/>
		</g>
	</g>
</g>
<path d="M25.34,72.76c-6.84,0-11.91,0.23-15.29,0.45c-1.09,0.23-2.07,0.68-2.88,1.36c-0.81,0.68-1.37,1.59-1.62,2.5
	c-0.48,2.05-0.66,5-0.66,9.09c0,4.32,0.19,7.27,0.66,9.32c0.24,1.14,0.81,1.82,1.62,2.73c0.83,0.68,1.74,1.14,2.81,1.14
	c3.39,0.45,8.52,0.68,15.36,0.68c6.84,0,11.97-0.23,15.36-0.68c1.07,0,2.07-0.45,2.88-1.14c0.81-0.91,1.29-1.59,1.55-2.73
	c0.48-2.05,0.66-5,0.66-9.32c0-4.09-0.18-7.05-0.66-9.09c-0.24-0.91-0.72-1.82-1.55-2.5c-0.81-0.68-1.81-1.14-2.88-1.36
	C37.31,72.98,32.18,72.76,25.34,72.76z"/>
<path class="st4" d="M25.34,70.48c-6.84,0-11.91,0.23-15.29,0.45c-1.09,0.23-2.07,0.68-2.88,1.36c-0.81,0.68-1.37,1.59-1.62,2.5
	c-0.48,2.05-0.66,5-0.66,9.09c0,4.32,0.19,7.27,0.66,9.32c0.24,1.14,0.81,1.82,1.62,2.73c0.83,0.68,1.74,1.14,2.81,1.14
	c3.39,0.45,8.52,0.68,15.36,0.68c6.84,0,11.97-0.23,15.36-0.68c1.07,0,2.07-0.45,2.88-1.14c0.81-0.91,1.29-1.59,1.55-2.73
	c0.48-2.05,0.66-5,0.66-9.32c0-4.09-0.18-7.05-0.66-9.09c-0.24-0.91-0.72-1.82-1.55-2.5c-0.81-0.68-1.81-1.14-2.88-1.36
	C37.31,70.71,32.18,70.48,25.34,70.48z"/>
<path class="st2" d="M12.84,50.03l3.41,11.36v6.82h2.27v-6.82l3.41-11.36h-2.27l-2.27,7.6l-2.27-7.6H12.84z M26.48,54.57
	c-1.88,0-3.41,1.53-3.41,3.41v6.82c0,1.88,1.53,3.41,3.41,3.41c1.88,0,3.41-1.53,3.41-3.41v-6.82
	C29.89,56.1,28.36,54.57,26.48,54.57z M32.16,54.57v0.78v3.76v6.25c0,0.87,0.08,1.51,0.21,1.92c0.21,0.63,0.74,0.92,1.49,0.92
	c0.82,0,1.98-0.51,2.84-1.56v0.57v0.99h2.27V54.57h-2.27V64.8v0.21c-0.49,0.73-1.33,1.14-1.78,1.14c-0.3,0-0.45-0.19-0.5-0.57
	c-0.02-0.03,0-0.36,0-0.92v-5.54v-3.76v-0.78C34.43,54.57,32.16,54.57,32.16,54.57z M26.48,56.85c0.63,0,1.14,0.51,1.14,1.14v6.82
	c0,0.63-0.51,1.14-1.14,1.14c-0.63,0-1.14-0.51-1.14-1.14v-6.82C25.34,57.36,25.85,56.85,26.48,56.85z"/>
<g>
	<rect x="8.3" y="75.03" class="st3" width="9.09" height="2.27"/>
	<rect x="11.71" y="77.3" class="st3" width="2.27" height="15.91"/>
	<path class="st3" d="M16.25,79.57v0.68v3.86v6.14c0,0.91,0.08,1.59,0.21,2.05c0.21,0.45,0.74,0.91,1.49,0.91
		c0.82,0,1.98-0.68,2.84-1.59v0.45v1.14h2.27V79.57H20.8V89.8v0.23c-0.49,0.68-1.33,1.14-1.78,1.14c-0.29,0-0.45-0.23-0.5-0.68
		c-0.02,0,0-0.45,0-0.91v-5.45v-3.86v-0.68L16.25,79.57L16.25,79.57z"/>
	<path class="st3" d="M25.34,75.03v4.55v13.64h2.27v-1v-0.57c0.87,1.06,2.03,1.56,2.84,1.56c0.75,0,1.28-0.29,1.49-0.92
		c0.13-0.41,0.21-1.05,0.21-1.92v-3.98v-3.98c0-0.87-0.08-1.51-0.21-1.92c-0.21-0.63-0.74-0.92-1.49-0.92
		c-0.82,0-1.98,0.51-2.84,1.56v-1.56v-4.55H25.34z M29.39,81.63c0.3,0,0.45,0.19,0.5,0.57c0.02,0.03,0,0.36,0,0.92v3.27v3.27
		c0,0.56,0.02,0.89,0,0.92c-0.05,0.38-0.2,0.57-0.5,0.57c-0.44,0-1.28-0.4-1.78-1.14V89.8v-7.03
		C28.11,82.04,28.95,81.63,29.39,81.63z"/>
	<path class="st3" d="M37.84,79.57c-1.88,0-3.41,1.53-3.41,3.41v6.82c0,1.88,1.53,3.41,3.41,3.41s3.41-1.53,3.41-3.41v-1.14h-2.27
		v1.14c0,0.63-0.51,1.14-1.14,1.14s-1.14-0.51-1.14-1.14v-1.14v-2.27h2.27h2.27v-3.41C41.25,81.1,39.73,79.57,37.84,79.57z
		 M37.84,81.85c0.63,0,1.14,0.51,1.14,1.14v1.14h-2.27v-1.14C36.71,82.36,37.22,81.85,37.84,81.85z"/>
</g>
</svg>
